<svg width="1743" height="959" viewBox="0 0 1743 959" fill="none" xmlns="http://www.w3.org/2000/svg">
<line x1="32.624" y1="216.746" x2="172.622" y2="216.746" stroke="white" stroke-width="4"/>
<line x1="159.497" y1="505.491" x2="264.495" y2="505.491" stroke="white" stroke-width="4"/>
<line x1="1.00498" y1="864.5" x2="298.5" y2="693.878" stroke="white" stroke-width="4"/>
<line x1="170.622" y1="730.613" x2="170.622" y2="402.493" stroke="white" stroke-width="4"/>
<line x1="87.499" y1="730.613" x2="87.499" y2="520.616" stroke="white" stroke-width="4"/>
<line x1="6.37451" y1="317.37" x2="448.242" y2="317.37" stroke="white" stroke-width="4"/>
<line x1="209.433" y1="104.152" x2="546.303" y2="826.015" stroke="white" stroke-width="4"/>
<circle cx="376.056" cy="216.559" r="57.0615" stroke="white" stroke-width="4"/>
<rect x="655.863" y="128.873" width="433.493" height="695.988" stroke="#141932" stroke-width="4"/>
<line x1="857.11" y1="104.998" x2="857.11" y2="848.736" stroke="white" stroke-width="4"/>
<line x1="631.989" y1="400.493" x2="1091.36" y2="400.493" stroke="white" stroke-width="4"/>
<circle cx="966.671" cy="299.682" r="48.3116" stroke="#6FC7FF" stroke-width="4"/>
<circle cx="739.175" cy="645.302" r="48.3116" stroke="white" stroke-width="4"/>
<circle cx="349.807" cy="203.434" r="50.3116" fill="white"/>
<rect x="1228.98" y="176.997" width="179.747" height="359.119" stroke="#FF0000" stroke-width="4"/>
<rect x="1207.1" y="155.122" width="170.997" height="367.869" stroke="white" stroke-width="4"/>
<rect x="970.859" y="216.371" width="87.8734" height="87.8734" stroke="white" stroke-width="4"/>
<line x1="1565.18" y1="1.49188" x2="1442.68" y2="110.865" stroke="white" stroke-width="4"/>
<rect x="1443.35" y="106.998" width="175.372" height="262.87" stroke="white" stroke-width="4"/>
<rect x="1478.35" y="194.497" width="140.373" height="26.6245" stroke="white" stroke-width="4"/>
<rect x="1535.22" y="303.87" width="109.748" height="96.6233" stroke="#6FC7FF" stroke-width="4"/>
<line x1="1443.35" y1="371.869" x2="1443.35" y2="616.864" stroke="white" stroke-width="4"/>
<line x1="1445.72" y1="483.617" x2="1725.72" y2="483.617" stroke="white" stroke-width="4"/>
<line x1="1445.72" y1="614.865" x2="1738.84" y2="614.865" stroke="white" stroke-width="4"/>
<line x1="1631.01" y1="825.581" x2="1740.38" y2="956.828" stroke="white" stroke-width="4"/>
<line x1="1438.98" y1="664.989" x2="1438.98" y2="826.861" stroke="white" stroke-width="4"/>
<line x1="1368.98" y1="664.989" x2="1368.98" y2="826.861" stroke="white" stroke-width="4"/>
<line x1="1740.85" y1="616.865" x2="1740.85" y2="949.359" stroke="white" stroke-width="4"/>
<line x1="1294.43" y1="665.796" x2="1228.81" y2="814.543" stroke="white" stroke-width="4"/>
<line x1="1513.18" y1="677.306" x2="1578.8" y2="826.054" stroke="white" stroke-width="4"/>
</svg>
